<svg version="1.1" id="Layer_1" xmlns="http://www.w3.org/2000/svg" xmlns:xlink="http://www.w3.org/1999/xlink" x="0px" y="0px"
	 width="100%" viewBox="0 0 256 263" enable-background="new 0 0 256 263" xml:space="preserve">
<path fill="#DDD3C8" opacity="1.000000" stroke="none" 
	d="
M257.000000,156.000000 
	C257.000000,159.362427 257.000000,162.724869 256.683197,166.220627 
	C255.245071,169.484360 253.907639,172.555969 253.037582,175.754715 
	C247.506119,196.091019 242.014771,216.438782 236.644379,236.818130 
	C234.267929,245.836151 232.205170,254.936844 230.000000,264.000000 
	C227.958328,264.000000 225.916641,264.000000 223.769348,263.693665 
	C222.859314,262.919617 222.109955,262.246002 221.242523,262.014099 
	C192.449173,254.316101 163.621170,246.746124 134.863449,238.917892 
	C129.794373,237.538040 123.927467,237.408173 121.012711,231.409515 
	C118.049339,225.310822 114.364059,219.566818 111.252953,213.534393 
	C109.625908,210.379547 107.777328,208.718048 103.875999,208.894897 
	C96.064598,209.249008 88.223358,209.103226 80.400467,208.914413 
	C78.804146,208.875870 76.843132,208.144592 75.711159,207.049469 
	C59.717037,191.576157 43.811985,176.010345 27.940248,160.411118 
	C19.983843,152.591324 12.160298,144.636383 4.211265,136.808990 
	C3.366341,135.976990 2.081017,135.592239 1.000001,135.000000 
	C1.000000,133.611115 1.000000,132.222214 1.249664,130.734009 
	C2.489449,129.758224 3.528633,128.930893 4.462514,127.998146 
	C27.907364,104.581734 51.323727,81.136711 74.824181,57.776279 
	C76.106247,56.501842 78.078346,55.132614 79.721474,55.142185 
	C88.448570,55.193024 97.171951,55.783730 105.899979,55.878975 
	C107.227112,55.893456 109.101357,54.608288 109.822113,53.391071 
	C114.345955,45.751175 118.588821,37.945408 123.003326,30.239586 
	C123.509018,29.356880 124.387070,28.327528 125.286865,28.083776 
	C142.852509,23.325275 160.440964,18.650280 178.037704,14.007320 
	C191.282333,10.512677 204.557022,7.130811 217.780228,3.557767 
	C218.995163,3.229478 219.933319,1.876928 221.000000,0.999998 
	C223.700272,1.000000 226.400528,1.000000 229.549179,1.417053 
	C230.110016,2.803263 230.101395,3.805168 230.353317,4.736609 
	C233.547684,16.547646 236.834396,28.333900 239.989304,40.155373 
	C245.053864,59.132523 250.026871,78.134140 255.122208,97.102943 
	C255.239243,97.538658 256.351807,97.706963 257.000000,98.000000 
	C257.000000,101.362434 257.000000,104.724861 256.729065,108.224014 
	C251.841171,115.860352 247.169632,123.327690 242.685349,130.905823 
	C242.197113,131.730911 242.427292,133.393295 242.940033,134.330399 
	C245.866333,139.678635 248.865875,144.995224 252.083344,150.171646 
	C253.411118,152.307816 255.342926,154.068512 257.000000,156.000000 
M78.500046,118.999939 
	C98.306015,118.999939 118.120399,118.677422 137.912888,119.193977 
	C143.949661,119.351532 146.481186,116.857635 149.088409,112.151459 
	C156.908844,98.035286 165.200409,84.180435 173.283386,70.209297 
	C178.826477,60.628304 184.328339,51.023453 190.058075,41.065250 
	C169.904984,46.162724 150.255219,51.073437 130.640015,56.118500 
	C120.289154,58.780758 110.497559,61.251041 102.569916,70.316208 
	C88.685661,86.192688 72.993324,100.487770 58.065205,115.452072 
	C57.095772,116.423882 56.183468,117.452675 54.734081,118.999939 
	C62.918446,118.999939 70.209274,118.999939 78.500046,118.999939 
M228.521439,107.960121 
	C223.622894,90.403687 218.724350,72.847244 213.589462,54.443779 
	C212.417648,56.495865 211.716873,57.737247 211.002945,58.971035 
	C205.265976,68.885773 199.527145,78.799446 193.787613,88.712715 
	C185.944931,102.258507 178.011993,115.753845 170.377792,129.416138 
	C169.487228,131.009918 169.455338,133.979462 170.356644,135.544586 
	C184.596970,160.273514 199.055344,184.876892 213.601608,209.744751 
	C220.761658,184.371124 227.888702,159.218613 234.892761,134.031876 
	C235.307846,132.539230 234.986954,130.706055 234.578552,129.143753 
	C232.789337,122.299210 230.841644,115.496101 228.521439,107.960121 
M171.691818,218.945541 
	C177.627014,220.383148 183.562210,221.820755 190.101837,223.404770 
	C174.927216,197.194458 160.134933,171.644562 145.403030,146.198975 
	C115.703209,146.198975 86.122955,146.198975 56.214802,146.198975 
	C64.473961,154.977020 72.363129,163.598770 80.514885,171.964630 
	C90.279472,181.985687 100.257851,191.798721 110.177399,201.667908 
	C111.080261,202.566177 112.123917,203.627182 113.278702,203.922623 
	C132.498230,208.839600 151.745956,213.646347 171.691818,218.945541 
z"/>
<path fill="#000000" opacity="1.000000" stroke="none" 
	d="
M1.000001,135.468658 
	C2.081017,135.592239 3.366341,135.976990 4.211265,136.808990 
	C12.160298,144.636383 19.983843,152.591324 27.940248,160.411118 
	C43.811985,176.010345 59.717037,191.576157 75.711159,207.049469 
	C76.843132,208.144592 78.804146,208.875870 80.400467,208.914413 
	C88.223358,209.103226 96.064598,209.249008 103.875999,208.894897 
	C107.777328,208.718048 109.625908,210.379547 111.252953,213.534393 
	C114.364059,219.566818 118.049339,225.310822 121.012711,231.409515 
	C123.927467,237.408173 129.794373,237.538040 134.863449,238.917892 
	C163.621170,246.746124 192.449173,254.316101 221.242523,262.014099 
	C222.109955,262.246002 222.859314,262.919617 223.331863,263.693665 
	C149.092316,264.000000 75.184631,264.000000 1.000000,264.000000 
	C1.000000,221.312836 1.000000,178.625076 1.000001,135.468658 
z"/>
<path fill="#000000" opacity="1.000000" stroke="none" 
	d="
M220.531342,0.999998 
	C219.933319,1.876928 218.995163,3.229478 217.780228,3.557767 
	C204.557022,7.130811 191.282333,10.512677 178.037704,14.007320 
	C160.440964,18.650280 142.852509,23.325275 125.286865,28.083776 
	C124.387070,28.327528 123.509018,29.356880 123.003326,30.239586 
	C118.588821,37.945408 114.345955,45.751175 109.822113,53.391071 
	C109.101357,54.608288 107.227112,55.893456 105.899979,55.878975 
	C97.171951,55.783730 88.448570,55.193024 79.721474,55.142185 
	C78.078346,55.132614 76.106247,56.501842 74.824181,57.776279 
	C51.323727,81.136711 27.907364,104.581734 4.462514,127.998146 
	C3.528633,128.930893 2.489449,129.758224 1.249664,130.317337 
	C1.000000,87.053947 1.000000,44.107903 1.000000,1.000000 
	C74.020813,1.000000 147.041748,1.000000 220.531342,0.999998 
z"/>
<path fill="#000000" opacity="1.000000" stroke="none" 
	d="
M230.468658,264.000000 
	C232.205170,254.936844 234.267929,245.836151 236.644379,236.818130 
	C242.014771,216.438782 247.506119,196.091019 253.037582,175.754715 
	C253.907639,172.555969 255.245071,169.484360 256.683197,166.676971 
	C257.000000,199.218842 257.000000,231.437683 257.000000,264.000000 
	C248.315460,264.000000 239.626389,264.000000 230.468658,264.000000 
z"/>
<path fill="#000000" opacity="1.000000" stroke="none" 
	d="
M257.000000,97.531342 
	C256.351807,97.706963 255.239243,97.538658 255.122208,97.102943 
	C250.026871,78.134140 245.053864,59.132523 239.989304,40.155373 
	C236.834396,28.333900 233.547684,16.547646 230.353317,4.736609 
	C230.101395,3.805168 230.110016,2.803263 229.998779,1.417053 
	C238.968124,1.000000 247.936264,1.000000 257.000000,1.000000 
	C257.000000,33.020836 257.000000,65.041756 257.000000,97.531342 
z"/>
<path fill="#000000" opacity="1.000000" stroke="none" 
	d="
M257.000000,155.531342 
	C255.342926,154.068512 253.411118,152.307816 252.083344,150.171646 
	C248.865875,144.995224 245.866333,139.678635 242.940033,134.330399 
	C242.427292,133.393295 242.197113,131.730911 242.685349,130.905823 
	C247.169632,123.327690 251.841171,115.860352 256.729065,108.680374 
	C257.000000,124.354225 257.000000,139.708450 257.000000,155.531342 
z"/>
<path fill="#000000" opacity="1.000000" stroke="none" 
	d="
M78.000076,118.999939 
	C70.209274,118.999939 62.918446,118.999939 54.734081,118.999939 
	C56.183468,117.452675 57.095772,116.423882 58.065205,115.452072 
	C72.993324,100.487770 88.685661,86.192688 102.569916,70.316208 
	C110.497559,61.251041 120.289154,58.780758 130.640015,56.118500 
	C150.255219,51.073437 169.904984,46.162724 190.058075,41.065250 
	C184.328339,51.023453 178.826477,60.628304 173.283386,70.209297 
	C165.200409,84.180435 156.908844,98.035286 149.088409,112.151459 
	C146.481186,116.857635 143.949661,119.351532 137.912888,119.193977 
	C118.120399,118.677422 98.306015,118.999939 78.000076,118.999939 
z"/>
<path fill="#000000" opacity="1.000000" stroke="none" 
	d="
M228.736450,108.319046 
	C230.841644,115.496101 232.789337,122.299210 234.578552,129.143753 
	C234.986954,130.706055 235.307846,132.539230 234.892761,134.031876 
	C227.888702,159.218613 220.761658,184.371124 213.601608,209.744751 
	C199.055344,184.876892 184.596970,160.273514 170.356644,135.544586 
	C169.455338,133.979462 169.487228,131.009918 170.377792,129.416138 
	C178.011993,115.753845 185.944931,102.258507 193.787613,88.712715 
	C199.527145,78.799446 205.265976,68.885773 211.002945,58.971035 
	C211.716873,57.737247 212.417648,56.495865 213.589462,54.443779 
	C218.724350,72.847244 223.622894,90.403687 228.736450,108.319046 
z"/>
<path fill="#000000" opacity="1.000000" stroke="none" 
	d="
M171.339600,218.711609 
	C151.745956,213.646347 132.498230,208.839600 113.278702,203.922623 
	C112.123917,203.627182 111.080261,202.566177 110.177399,201.667908 
	C100.257851,191.798721 90.279472,181.985687 80.514885,171.964630 
	C72.363129,163.598770 64.473961,154.977020 56.214802,146.198975 
	C86.122955,146.198975 115.703209,146.198975 145.403030,146.198975 
	C160.134933,171.644562 174.927216,197.194458 190.101837,223.404770 
	C183.562210,221.820755 177.627014,220.383148 171.339600,218.711609 
z"/>
</svg>