<?xml version="1.0"?>
<svg viewBox="0 0 110 110" xmlns="http://www.w3.org/2000/svg" xmlns:svg="http://www.w3.org/2000/svg">
 <g class="layer" stroke="#fff" fill="white">
  <title>Layer 1</title>
  <path d="m56.05,7.68c-26.06,0 -47.27,21.22 -47.27,47.27s21.22,47.27 47.27,47.27s47.27,-21.22 47.27,-47.27s-21.22,-47.27 -47.27,-47.27zm-0.07,4.2a3.1,3.11 0 0 1 3.02,3.11a3.11,3.11 0 0 1 -6.22,0a3.11,3.11 0 0 1 3.2,-3.11zm7.12,5.12a38.27,38.27 0 0 1 26.2,18.66l-3.67,8.28c-0.63,1.43 0.02,3.11 1.44,3.75l7.06,3.13a38.27,38.27 0 0 1 0.08,6.64l-3.93,0c-0.39,0 -0.55,0.26 -0.55,0.64l0,1.8c0,4.24 -2.39,5.17 -4.49,5.4c-2,0.23 -4.21,-0.84 -4.49,-2.06c-1.18,-6.63 -3.14,-8.04 -6.24,-10.49c3.85,-2.44 7.85,-6.05 7.85,-10.87c0,-5.21 -3.57,-8.49 -6,-10.1c-3.42,-2.25 -7.2,-2.7 -8.22,-2.7l-40.6,0a38.27,38.27 0 0 1 21.41,-12.08l4.79,5.02c1.08,1.13 2.87,1.18 4,0.09l5.36,-5.11zm-44.2,23.02a3.11,3.11 0 0 1 3.02,3.11a3.11,3.11 0 0 1 -6.22,0a3.11,3.11 0 0 1 3.2,-3.11zm74.15,0.14a3.11,3.11 0 0 1 3.02,3.11a3.11,3.11 0 0 1 -6.22,0a3.11,3.11 0 0 1 3.2,-3.11zm-68.29,0.5l5.42,0l0,24.44l-10.94,0a38.27,38.27 0 0 1 -1.24,-14.61l6.7,-2.98c1.43,-0.64 2.08,-2.31 1.44,-3.74l-1.38,-3.11zm22.62,0.26l12.91,0c0.67,0 4.71,0.77 4.71,3.8c0,2.51 -3.1,3.41 -5.65,3.41l-11.98,0l0.01,-7.21zm0,17.56l9.89,0c0.9,0 4.83,0.26 6.08,5.28c0.39,1.54 1.26,6.56 1.85,8.17c0.59,1.8 2.98,5.4 5.53,5.4l16.14,0a38.27,38.27 0 0 1 -3.54,4.1l-6.57,-1.41c-1.53,-0.33 -3.04,0.65 -3.37,2.18l-1.56,7.28a38.27,38.27 0 0 1 -31.91,-0.15l-1.56,-7.28c-0.33,-1.53 -1.83,-2.51 -3.36,-2.18l-6.43,1.38a38.27,38.27 0 0 1 -3.32,-3.92l31.27,0c0.35,0 0.59,-0.06 0.59,-0.39l0,-11.06c0,-0.32 -0.24,-0.39 -0.59,-0.39l-9.15,0l0.01,-7.01zm-14.43,25.33a3.11,3.11 0 0 1 3.02,3.11a3.11,3.11 0 0 1 -6.22,0a3.11,3.11 0 0 1 3.2,-3.11zm46.05,0.14a3.11,3.11 0 0 1 3.02,3.11a3.11,3.11 0 0 1 -6.22,0a3.11,3.11 0 0 1 3.2,-3.11z" id="svg_1"/>
  <path d="m100.68,54.95a44.63,44.63 0 0 1 -44.63,44.63a44.63,44.63 0 0 1 -44.63,-44.63a44.63,44.63 0 0 1 44.63,-44.63a44.63,44.63 0 0 1 44.63,44.63zm-0.84,-4.31l6.96,4.31l-6.96,4.31l5.98,5.59l-7.66,2.87l4.78,6.65l-8.09,1.32l3.4,7.46l-8.19,-0.29l1.88,7.98l-7.98,-1.88l0.29,8.19l-7.46,-3.4l-1.32,8.09l-6.65,-4.78l-2.87,7.66l-5.59,-5.98l-4.31,6.96l-4.31,-6.96l-5.59,5.98l-2.87,-7.66l-6.65,4.78l-1.32,-8.09l-7.46,3.4l0.29,-8.19l-7.98,1.88l1.88,-7.98l-8.19,0.29l3.4,-7.46l-8.09,-1.32l4.78,-6.65l-7.66,-2.87l5.98,-5.59l-6.96,-4.31l6.96,-4.31l-5.98,-5.59l7.66,-2.87l-4.78,-6.65l8.09,-1.32l-3.4,-7.46l8.19,0.29l-1.88,-7.98l7.98,1.88l-0.29,-8.19l7.46,3.4l1.32,-8.09l6.65,4.78l2.87,-7.66l5.59,5.98l4.31,-6.96l4.31,6.96l5.59,-5.98l2.87,7.66l6.65,-4.78l1.32,8.09l7.46,-3.4l-0.29,8.19l7.98,-1.88l-1.88,7.98l8.19,-0.29l-3.4,7.46l8.09,1.32l-4.78,6.65l7.66,2.87l-5.98,5.59z" fill-rule="evenodd" id="svg_2" stroke-linecap="round" stroke-linejoin="round" stroke-width="3"/>
 </g>

</svg>
